<svg xmlns="http://www.w3.org/2000/svg" version="1.1" xmlns:xlink="http://www.w3.org/1999/xlink" xmlns:svgjs="http://svgjs.dev/svgjs" width="1000" height="1000" viewBox="0 0 1000 1000"><rect width="1000" height="1000" fill="#000000"></rect><g transform="matrix(0.7,0,0,0.7,150.08576584413868,174.06412955465584)"><svg viewBox="0 0 265 247" data-background-color="#1f0f53" preserveAspectRatio="xMidYMid meet" height="932" width="1000" xmlns="http://www.w3.org/2000/svg" xmlns:xlink="http://www.w3.org/1999/xlink"><g id="tight-bounds" transform="matrix(1,0,0,1,-0.03246849813820063,-0.09999999999999432)"><svg viewBox="0 0 265.0649369962764 247.2" height="247.2" width="265.0649369962764"><g><svg viewBox="0 0 397.4975999999999 370.7069212303261" height="247.2" width="265.0649369962764"><g><rect width="397.4975999999999" height="7.024918920268013" x="0" y="198.64306919042025" fill="#ffffff" opacity="1" stroke-width="0" stroke="transparent" fill-opacity="1" class="rect-o$-0" data-fill-palette-color="primary" rx="1%" id="o$-0" data-palette-color="#ffdb99"></rect></g><g><rect width="397.4975999999999" height="7.024918920268013" x="0" y="214.8629081633951" fill="#ffffff" opacity="1" stroke-width="0" stroke="transparent" fill-opacity="1" class="rect-o$-1" data-fill-palette-color="primary" rx="1%" id="o$-1" data-palette-color="#ffdb99"></rect></g><g transform="matrix(1,0,0,1,0.9887999999999693,240.27766718907677)"><svg viewBox="0 0 395.52 130.42925404124935" height="130.42925404124935" width="395.52"><g id="textblocktransform"><svg viewBox="0 0 395.52 130.42925404124935" height="130.42925404124935" width="395.52" id="textblock"><g><svg viewBox="0 0 395.52 77.89796550862285" height="77.89796550862285" width="395.52"><g transform="matrix(1,0,0,1,0,0)"><svg width="395.52" viewBox="3.4 -38.45 200.01999999999998 39.400000000000006" height="77.89796550862285" data-palette-color="#ffdb99"><path d="M5.2 0.3Q4.85 0.3 4.63 0 4.4-0.3 4.4-0.75L4.4-0.75 4.4-1.55 4.4-2.75Q4.4-5.9 4.15-9.85L4.15-9.85Q3.95-14.05 3.95-16.95L3.95-16.95Q3.95-19.65 3.7-27.4L3.7-27.4Q3.4-34.4 3.4-37.85L3.4-37.85Q3.4-38.1 3.63-38.27 3.85-38.45 4.15-38.45L4.15-38.45Q5.05-38.45 5.05-37.7L5.05-37.7Q5.05-28.45 5.2-23.85L5.2-23.85 5.45-14.9Q5.45-12.8 5.75-8.05L5.75-8.05 6.05-1.85Q6.05-1.7 6.2-1.7L6.2-1.7Q6.25-1.65 6.85-1.65L6.85-1.65 9.95-1.65Q10.6-1.65 10.6-0.75L10.6-0.75Q10.6-0.35 10.45-0.08 10.3 0.2 10 0.2L10 0.2 9.65 0.25 9.25 0.25Q8.2 0.3 5.2 0.3L5.2 0.3ZM16.9 0.65Q16 0.65 15.9-0.4L15.9-0.4 15.9-1.05Q15.95-1.3 15.95-1.65L15.95-1.65 15.75-1.85Q16.15-2.9 16.15-3.9L16.15-3.9Q16.15-5.05 16-7.2L16-7.2 15.9-10.5Q15.9-13 16.05-18L16.05-18Q16.25-22.45 16.25-25.55L16.25-25.55 16.15-28.55Q16.05-29.9 16.05-31.55L16.05-31.55Q16.05-32.3 16.4-32.63 16.75-32.95 17.5-32.95L17.5-32.95Q18-32.95 18.3-32.65L18.3-32.65Q18.4-32.6 19.75-32.45L19.75-32.45Q21-32.3 21.9-32L21.9-32Q22.85-31.7 22.85-31.25L22.85-31.25Q22.85-30.75 21.9-30.25L21.9-30.25Q19.05-31.2 17.85-31.2L17.85-31.2 17.6-30.9Q17.65-30.45 17.65-28.75L17.65-28.75Q17.65-26.6 17.55-24.9L17.55-24.9Q17.5-23.15 17.5-21L17.5-21Q17.5-19.6 18.2-19.6L18.2-19.6 19-19.65Q19.4-19.7 19.85-19.7L19.85-19.7Q21.8-19.7 21.8-18.8L21.8-18.8Q21.8-18.25 21.55-17.88 21.3-17.5 20.8-17.5L20.8-17.5Q20.05-17.5 19.65-17.9L19.65-17.9 18.05-18.15 17.8-18.15 17.55-17.9 17.55-17.75Q17.65-16.9 17.65-13.8L17.65-13.8Q17.65-11.85 17.6-10.25L17.6-10.25 17.55-6.7Q17.55-4.75 17.7-2.7L17.7-2.7Q17.75-1.55 18.2-1.18 18.65-0.8 19.85-0.8L19.85-0.8 20.75-0.85Q21.2-0.9 21.75-0.9L21.75-0.9Q23.2-0.9 23.2-0.25L23.2-0.25Q23.2 0.65 21 0.65L21 0.65 16.9 0.65ZM29.8 0.7L28.8-0.05Q29.3-4.6 29.3-12.2L29.3-12.2Q29.3-15.55 29.59-22.3L29.59-22.3Q29.95-28.55 29.95-32.35L29.95-32.35Q29.95-32.8 30.37-33.05 30.8-33.3 31.34-33.3L31.34-33.3Q33.09-33.3 35.2-32.9 37.3-32.5 37.3-31.85L37.3-31.85Q37.3-31 35.55-31L35.55-31Q34.45-31.5 32.74-31.5L32.74-31.5 32.14-31.45Q32-31.4 31.92-31.3 31.84-31.2 31.8-31L31.8-31Q31.7-30.6 31.59-30.45L31.59-30.45Q31.59-28.2 31.39-25.15L31.39-25.15Q31.14-22.2 31.14-19.9L31.14-19.9 31.14-18.15Q31.14-17.95 31.95-18L31.95-18Q34.49-18 34.49-17.2L34.49-17.2Q34.49-16.8 34.12-16.53 33.74-16.25 33.3-16.25L33.3-16.25Q32.99-16.25 32.45-16.4L32.45-16.4Q31.95-16.55 31.59-16.55L31.59-16.55Q30.7-16.55 30.7-14.1L30.7-14.1 30.7-8.45Q30.7-7.25 30.84-4.9L30.84-4.9Q31-2.5 31-1.3L31-1.3Q31 0.7 29.8 0.7L29.8 0.7ZM46.19-0.3L45.64-0.7 45.59-2.55Q45.54-3.35 45.54-4.35L45.54-4.35Q45.54-4.85 45.59-5.2L45.59-5.2 45.64-6.1Q45.64-6.6 45.44-7.3L45.44-7.3Q45.44-10.65 44.94-19.75L44.94-19.75Q44.44-28.55 44.39-31.7L44.39-31.7Q41.29-31.7 40.24-31.85L40.24-31.85Q39.24-32.1 39.24-32.65L39.24-32.65Q39.49-33.2 40.19-33.2L40.19-33.2Q41.69-33.2 44.54-33L44.54-33Q47.14-32.75 48.89-32.75L48.89-32.75 49.94-32.75 50.99-32.8Q51.89-32.8 51.89-32.15L51.89-32.15Q51.89-31.85 51.57-31.68 51.24-31.5 50.79-31.5L50.79-31.5Q49.79-31.5 48.69-31.6L48.69-31.6 46.54-31.7Q46.34-31.7 46.34-31.55L46.34-31.55Q46.29-31.4 46.29-30.6L46.29-30.6Q46.29-25.75 46.89-15.9L46.89-15.9Q47.44-5.7 47.44-1.25L47.44-1.25Q47.44-0.9 47.02-0.6 46.59-0.3 46.19-0.3L46.19-0.3ZM62.39 0.95Q56.54 0.95 56.54-17.45L56.54-17.45 56.54-19.2Q56.54-33.15 60.14-33.15L60.14-33.15Q60.39-33.15 60.84-33L60.84-33Q62.44-32.45 63.99-32.3L63.99-32.3Q64.94-32.1 65.89-30.35L65.89-30.35Q66.94-28.55 67.47-25.6 67.99-22.65 67.99-19.55L67.99-19.55 67.89-19.3Q67.89-17.65 67.94-16.35L67.94-16.35 67.99-13.35Q67.99-10.8 67.79-8.75L67.79-8.75Q67.49-5.65 66.79-3.4L66.79-3.4Q66.34-2.05 65.77-1.15 65.19-0.25 64.34 0.35L64.34 0.35Q63.54 0.95 62.39 0.95L62.39 0.95ZM62.19-0.5Q64.14-0.5 65.09-3.25L65.09-3.25Q66.04-6.05 66.24-8.95L66.24-8.95Q66.44-11.95 66.44-13.75L66.44-13.75Q66.44-15.75 66.14-19.65L66.14-19.65Q65.89-24 65.89-25.55L65.89-25.55 65.69-25.95 65.79-26.2Q65.79-28.4 64.57-30 63.34-31.6 61.59-31.6L61.59-31.6Q59.29-31.6 58.84-29.4L58.84-29.4Q58.74-28.65 58.64-27.25L58.64-27.25Q58.64-23.55 58.34-22.2L58.34-22.2Q58.34-21.45 58.19-19.85L58.19-19.85 58.09-17.5Q58.09-16.4 58.14-15.55L58.14-15.55 58.19-13.55Q58.19-11.2 58.59-8.15L58.59-8.15Q58.89-5.9 59.29-4.35 59.69-2.8 60.44-1.7L60.44-1.7Q61.19-0.5 62.19-0.5L62.19-0.5ZM79.74 0.75Q78.94 0.75 78.01 0.23 77.09-0.3 76.49-1L76.49-1Q75.79-1.9 75.39-6.05 74.99-10.2 74.89-15.55L74.89-15.55Q74.89-16.75 74.84-17.35L74.84-17.35Q74.74-29.9 74.44-32.2L74.44-32.2 74.74-32.9Q75.89-32.75 75.89-30.15L75.89-30.15 76.04-16.9Q76.04-15.5 76.29-11.6L76.29-11.6Q76.59-8.1 76.59-6.3L76.59-6.3Q76.59-0.6 80.34-0.6L80.34-0.6Q82.64-0.6 83.29-11.1L83.29-11.1 83.34-12.1Q83.69-25.85 83.69-32.45L83.69-32.45 83.64-32.9Q83.59-33.1 83.59-33.35L83.59-33.35Q83.59-33.9 84.44-33.9L84.44-33.9Q85.04-33.9 85.19-33.6L85.19-33.6Q85.29-33.1 85.29-31.85L85.29-31.85Q85.29-28.05 84.99-26.75L84.99-26.75 85.04-26.45Q85.04-25.8 84.89-24.45L84.89-24.45 84.79-22.45 84.79-21.95Q84.84-21.75 84.84-21.45L84.84-21.45Q84.74-20.25 84.74-19.15L84.74-19.15Q84.69-18.8 84.69-18.05L84.69-18.05Q84.59-13.3 84.49-9.8L84.49-9.8Q84.34-5.45 83.29-2.45L83.29-2.45Q82.19 0.75 79.74 0.75L79.74 0.75ZM96.64-0.3L96.09-0.7 96.04-2.55Q95.99-3.35 95.99-4.35L95.99-4.35Q95.99-4.85 96.04-5.2L96.04-5.2 96.09-6.1Q96.09-6.6 95.89-7.3L95.89-7.3Q95.89-10.65 95.39-19.75L95.39-19.75Q94.89-28.55 94.84-31.7L94.84-31.7Q91.74-31.7 90.69-31.85L90.69-31.85Q89.69-32.1 89.69-32.65L89.69-32.65Q89.94-33.2 90.64-33.2L90.64-33.2Q92.14-33.2 94.99-33L94.99-33Q97.59-32.75 99.34-32.75L99.34-32.75 100.39-32.75 101.44-32.8Q102.34-32.8 102.34-32.15L102.34-32.15Q102.34-31.85 102.01-31.68 101.69-31.5 101.24-31.5L101.24-31.5Q100.24-31.5 99.14-31.6L99.14-31.6 96.99-31.7Q96.79-31.7 96.79-31.55L96.79-31.55Q96.74-31.4 96.74-30.6L96.74-30.6Q96.74-25.75 97.34-15.9L97.34-15.9Q97.89-5.7 97.89-1.25L97.89-1.25Q97.89-0.9 97.46-0.6 97.04-0.3 96.64-0.3L96.64-0.3ZM117.78 0.3Q117.43 0.3 117.21 0 116.98-0.3 116.98-0.75L116.98-0.75 116.98-1.55 116.98-2.75Q116.98-5.9 116.73-9.85L116.73-9.85Q116.53-14.05 116.53-16.95L116.53-16.95Q116.53-19.65 116.28-27.4L116.28-27.4Q115.98-34.4 115.98-37.85L115.98-37.85Q115.98-38.1 116.21-38.27 116.43-38.45 116.73-38.45L116.73-38.45Q117.63-38.45 117.63-37.7L117.63-37.7Q117.63-28.45 117.78-23.85L117.78-23.85 118.03-14.9Q118.03-12.8 118.33-8.05L118.33-8.05 118.63-1.85Q118.63-1.7 118.78-1.7L118.78-1.7Q118.83-1.65 119.43-1.65L119.43-1.65 122.53-1.65Q123.18-1.65 123.18-0.75L123.18-0.75Q123.18-0.35 123.03-0.08 122.88 0.2 122.58 0.2L122.58 0.2 122.23 0.25 121.83 0.25Q120.78 0.3 117.78 0.3L117.78 0.3ZM129.48 0.65Q128.58 0.65 128.48-0.4L128.48-0.4 128.48-1.05Q128.53-1.3 128.53-1.65L128.53-1.65 128.33-1.85Q128.73-2.9 128.73-3.9L128.73-3.9Q128.73-5.05 128.58-7.2L128.58-7.2 128.48-10.5Q128.48-13 128.63-18L128.63-18Q128.83-22.45 128.83-25.55L128.83-25.55 128.73-28.55Q128.63-29.9 128.63-31.55L128.63-31.55Q128.63-32.3 128.98-32.63 129.33-32.95 130.08-32.95L130.08-32.95Q130.58-32.95 130.88-32.65L130.88-32.65Q130.98-32.6 132.33-32.45L132.33-32.45Q133.58-32.3 134.48-32L134.48-32Q135.43-31.7 135.43-31.25L135.43-31.25Q135.43-30.75 134.48-30.25L134.48-30.25Q131.63-31.2 130.43-31.2L130.43-31.2 130.18-30.9Q130.23-30.45 130.23-28.75L130.23-28.75Q130.23-26.6 130.13-24.9L130.13-24.9Q130.08-23.15 130.08-21L130.08-21Q130.08-19.6 130.78-19.6L130.78-19.6 131.58-19.65Q131.98-19.7 132.43-19.7L132.43-19.7Q134.38-19.7 134.38-18.8L134.38-18.8Q134.38-18.25 134.13-17.88 133.88-17.5 133.38-17.5L133.38-17.5Q132.63-17.5 132.23-17.9L132.23-17.9 130.63-18.15 130.38-18.15 130.13-17.9 130.13-17.75Q130.23-16.9 130.23-13.8L130.23-13.8Q130.23-11.85 130.18-10.25L130.18-10.25 130.13-6.7Q130.13-4.75 130.28-2.7L130.28-2.7Q130.33-1.55 130.78-1.18 131.23-0.8 132.43-0.8L132.43-0.8 133.33-0.85Q133.78-0.9 134.33-0.9L134.33-0.9Q135.78-0.9 135.78-0.25L135.78-0.25Q135.78 0.65 133.58 0.65L133.58 0.65 129.48 0.65ZM147.23 0.35Q144.93 0.35 143.83-0.2 142.73-0.75 142.2-2.33 141.68-3.9 141.28-7.35L141.28-7.35Q140.68-12.4 140.68-15.2L140.68-15.2Q140.68-16.9 140.88-19.1L140.88-19.1 141.18-22.25Q141.43-26 141.75-27.93 142.08-29.85 143.2-31.33 144.33-32.8 146.68-33.05L146.68-33.05Q146.93-33.1 147.48-33.1L147.48-33.1Q149.03-33.1 149.03-32.4L149.03-32.4Q149.03-32.1 148.7-31.88 148.38-31.65 148.03-31.65L148.03-31.65 147.53-31.7 147.08-31.75Q146.23-31.75 145.55-31.2 144.88-30.65 144.43-29.6L144.43-29.6Q143.38-27.1 143.08-24.7L143.08-24.7Q142.68-21.55 142.58-19.2L142.58-19.2 142.53-15.35Q142.53-12.9 142.68-11.7L142.68-11.7Q143.03-11.15 143.15-10.03 143.28-8.9 143.38-6.95L143.38-6.95Q143.48-5.2 143.83-3.98 144.18-2.75 145.08-1.95L145.08-1.95Q146.08-1.1 147.83-1.1L147.83-1.1Q149.28-1.1 149.88-2.7L149.88-2.7Q150.58-4.4 150.68-6.2L150.68-6.2Q150.83-8.45 150.83-10L150.83-10 150.83-12.75Q150.33-13.25 149.08-13.25L149.08-13.25 148.68-13.25Q148.43-13.2 148.13-13.2L148.13-13.2Q146.93-13.2 146.93-13.8L146.93-13.8Q146.93-14.65 148.13-14.65L148.13-14.65Q148.98-14.65 149.53-14.6L149.53-14.6 150.63-14.55Q151.58-14.4 152.13-14.2L152.13-14.2Q152.73-14 152.73-13.65L152.73-13.65Q152.73-13 152.43-11.8L152.43-11.8Q152.18-10.4 152.18-9.9L152.18-9.9Q152.18-7.8 152.28-6.1L152.28-6.1Q152.33-4.35 152.33-2.25L152.33-2.25Q149.78 0.35 147.23 0.35L147.23 0.35ZM160.97 0Q159.82 0 159.62-0.5L159.62-0.5Q159.37-0.5 159.22-0.45L159.22-0.45 158.82-0.45Q157.72-0.45 157.42-0.95L157.42-0.95Q157.42-1.3 157.82-1.55L157.82-1.55 158.07-1.8 159.52-1.8 159.72-2 159.82-2.45 159.87-3.05Q159.87-6.1 159.72-8.5L159.72-8.5 159.62-10.35 159.52-14Q159.52-15.95 159.67-19.85L159.67-19.85 159.77-25.65Q159.77-29.45 159.52-31.45L159.52-31.45Q159.07-31.6 158.02-31.6L158.02-31.6 157.47-31.55Q157.17-31.5 156.82-31.5L156.82-31.5Q155.87-31.5 155.87-32.35L155.87-32.35Q155.87-32.55 156.32-32.75 156.77-32.95 157.07-32.95L157.07-32.95Q158.97-32.95 160.87-32.75L160.87-32.75Q162.02-32.7 163.17-32.3L163.17-32.3Q164.07-32 164.07-31.45L164.07-31.45Q164.07-31.35 163.92-31.05L163.92-31.05 162.77-30.95Q162.42-31.25 161.32-31.25L161.32-31.25 161.07-31.1Q161.22-30.65 161.22-28.45L161.22-28.45Q161.22-25.15 161.17-22.5L161.17-22.5 161.07-16.55Q161.07-14.3 161.27-11.1L161.27-11.1Q161.42-7.45 161.42-5.6L161.42-5.6 161.42-4.95Q161.37-4.6 161.37-4.05L161.37-4.05Q161.37-2.9 161.52-2.65L161.52-2.65 161.47-2.55Q161.47-2.05 162.57-2.05L162.57-2.05Q163.02-2.05 163.32-2.1L163.32-2.1 164.07-2.1Q165.52-2.1 165.52-1.4L165.52-1.4Q165.52-0.95 165.22-0.68 164.92-0.4 164.42-0.4L164.42-0.4Q163.97-0.4 163.62-0.5L163.62-0.5Q163.22-0.55 162.77-0.55L162.77-0.55Q162.47-0.55 161.87-0.3L161.87-0.3Q161.27 0 160.97 0L160.97 0ZM175.32 0.95Q169.47 0.95 169.47-17.45L169.47-17.45 169.47-19.2Q169.47-33.15 173.07-33.15L173.07-33.15Q173.32-33.15 173.77-33L173.77-33Q175.37-32.45 176.92-32.3L176.92-32.3Q177.87-32.1 178.82-30.35L178.82-30.35Q179.87-28.55 180.4-25.6 180.92-22.65 180.92-19.55L180.92-19.55 180.82-19.3Q180.82-17.65 180.87-16.35L180.87-16.35 180.92-13.35Q180.92-10.8 180.72-8.75L180.72-8.75Q180.42-5.65 179.72-3.4L179.72-3.4Q179.27-2.05 178.7-1.15 178.12-0.25 177.27 0.35L177.27 0.35Q176.47 0.95 175.32 0.95L175.32 0.95ZM175.12-0.5Q177.07-0.5 178.02-3.25L178.02-3.25Q178.97-6.05 179.17-8.95L179.17-8.95Q179.37-11.95 179.37-13.75L179.37-13.75Q179.37-15.75 179.07-19.65L179.07-19.65Q178.82-24 178.82-25.55L178.82-25.55 178.62-25.95 178.72-26.2Q178.72-28.4 177.5-30 176.27-31.6 174.52-31.6L174.52-31.6Q172.22-31.6 171.77-29.4L171.77-29.4Q171.67-28.65 171.57-27.25L171.57-27.25Q171.57-23.55 171.27-22.2L171.27-22.2Q171.27-21.45 171.12-19.85L171.12-19.85 171.02-17.5Q171.02-16.4 171.07-15.55L171.07-15.55 171.12-13.55Q171.12-11.2 171.52-8.15L171.52-8.15Q171.82-5.9 172.22-4.35 172.62-2.8 173.37-1.7L173.37-1.7Q174.12-0.5 175.12-0.5L175.12-0.5ZM200.17 0.2Q199.77 0.2 199.59-0.1 199.42-0.4 199.27-1L199.27-1Q199.22-1.4 199.07-1.7L199.07-1.7 199.12-1.85Q198.72-4.2 197.42-7.6L197.42-7.6 196.52-10.2Q196.42-10.3 195.57-12.75L195.57-12.75 195.17-13.95Q190.67-27.85 189.52-29L189.52-29Q189.12-27.65 189.12-25.5L189.12-25.5Q189.12-24.35 189.17-23.5L189.17-23.5 189.22-21.55 189.17-20.35Q189.12-19.8 189.12-19.15L189.12-19.15Q189.12-18.05 189.22-17.25L189.22-17.25Q189.32-15.65 189.32-15.65L189.32-15.65 189.17-15.65Q189.17-7.3 189.52-6.45L189.52-6.45 189.52-1.95Q189.72-1.55 189.72-0.9L189.72-0.9Q189.72-0.5 189.44-0.2 189.17 0.1 188.77 0.1L188.77 0.1Q187.72 0.1 187.72-2.6L187.72-2.6 187.82-4.2Q187.92-4.95 187.92-5.85L187.92-5.85Q187.92-8.25 187.77-13.05L187.77-13.05Q187.62-17.85 187.62-20.25L187.62-20.25Q187.62-21.7 187.77-24.7L187.77-24.7Q187.92-27.65 187.92-29.1L187.92-29.1 187.92-29.75Q187.92-32.2 188.82-32.95L188.82-32.95 188.97-32.8 189.47-32.9Q189.67-32.85 189.92-32.6L189.92-32.6Q190.12-32.4 190.12-32.15L190.12-32.15 190.22-31.85Q190.22-31.75 190.24-31.68 190.27-31.6 190.27-31.6L190.27-31.6Q191.07-28.05 193.87-21.65L193.87-21.65Q196.72-14.9 197.42-12.7L197.42-12.7Q197.92-10.95 198.22-9.6L198.22-9.6Q199.17-5.35 200.47-3.05L200.47-3.05 200.57-3.2Q201.72-14.3 201.72-30.45L201.72-30.45 201.67-31.05Q201.62-31.3 201.62-31.7L201.62-31.7Q201.62-32.75 202.32-32.75L202.32-32.75Q202.77-32.75 203.09-32.3 203.42-31.85 203.42-31.3L203.42-31.3 203.42-27.95 203.17-27.55Q203.17-22.8 202.62-11.95 202.07-1.1 201.57-0.15L201.57-0.15 200.72 0.05 200.72 0.1 200.67 0.05 200.17 0.2Z" opacity="1" transform="matrix(1,0,0,1,0,0)" fill="#ffffff" class="undefined-text-0" data-fill-palette-color="primary" id="text-0"></path></svg></g></svg></g><g transform="matrix(1,0,0,1,0,96.2878056140365)"><svg viewBox="0 0 395.52 34.14144842721287" height="34.14144842721287" width="395.52"><g transform="matrix(1,0,0,1,0,0)"><svg width="395.52" viewBox="4.55 -35 410.06 35.4" height="34.14144842721287" data-palette-color="#ff5db2"><path d="M28.65-35L28.65 0 24.9 0 24.9-16.55 8.3-16.55 8.3 0 4.55 0 4.55-35 8.3-35 8.3-19.8 24.9-19.8 24.9-35 28.65-35ZM53.2-12.33Q53.2-17.15 51.3-19.7 49.4-22.25 45.75-22.25 42.1-22.25 40.57-19.83 39.05-17.4 39.05-12.4L39.05-12.4Q39.05-2.95 46-2.95L46-2.95Q49.65-2.95 51.42-5.23 53.2-7.5 53.2-12.33ZM54.1-3.1Q51.25 0.3 46.05 0.3 40.85 0.3 38.07-3.08 35.3-6.45 35.3-12.53 35.3-18.6 37.97-22.05 40.65-25.5 45.82-25.5 51-25.5 53.97-22 56.95-18.5 56.95-12.5 56.95-6.5 54.1-3.1ZM74.2-25.55L74.2-25.55Q79-25.55 81.05-22.15L81.05-22.15Q85.3-25.55 88.9-25.55 92.5-25.55 94.77-23.53 97.05-21.5 97.05-17.65L97.05-17.65 97.05 0 93.4 0 93.4-16.1Q93.4-19.15 92.02-20.73 90.65-22.3 88.35-22.3L88.35-22.3Q85.2-22.3 82-19.8L82-19.8Q82.25-18.7 82.25-17.65L82.25-17.65 82.25 0 78.6 0 78.6-16.1Q78.6-19.15 77.22-20.73 75.85-22.3 73.55-22.3L73.55-22.3Q72.05-22.3 70.8-21.9 69.55-21.5 68.95-21.1 68.35-20.7 67.4-19.9L67.4-19.9 67.4 0 63.65 0 63.65-25 66.05-25 66.7-22.45Q67.95-23.5 68.62-23.98 69.3-24.45 70.85-25 72.4-25.55 74.2-25.55ZM123.49-11.7L123.49-11.7 107.54-11.7Q107.54-6.9 109.82-4.9 112.09-2.9 115.54-2.9L115.54-2.9Q117.29-2.9 117.99-3.08 118.69-3.25 119.32-3.43 119.94-3.6 120.19-3.7L120.19-3.7Q121.44-4.05 122.34-4.35L122.34-4.35 122.94-1.45Q117.94 0.3 115.14 0.3L115.14 0.3Q109.99 0.3 106.89-2.83 103.79-5.95 103.79-12.23 103.79-18.5 106.72-22 109.64-25.5 114.12-25.5 118.59-25.5 121.09-22.6 123.59-19.7 123.59-14.75L123.59-14.75Q123.59-13.4 123.49-11.7ZM107.79-14.55L107.79-14.55 119.99-14.55Q119.99-18.25 118.69-20.25 117.39-22.25 114.17-22.25 110.94-22.25 109.44-20.1 107.94-17.95 107.79-14.55ZM128.74-1.65L129.64-4.45Q132.89-2.95 135.84-2.95 138.79-2.95 140.32-4.13 141.84-5.3 141.84-7.25 141.84-9.2 140.54-10.28 139.24-11.35 137.37-11.95 135.49-12.55 133.62-13.25 131.74-13.95 130.44-15.35 129.14-16.75 129.14-18.9L129.14-18.9Q129.14-22.05 131.19-23.78 133.24-25.5 136.74-25.5 140.24-25.5 143.24-24.45L143.24-24.45 143.59-24.3 142.94-21.1Q139.94-22.25 137.37-22.25 134.79-22.25 133.84-21.45 132.89-20.65 132.89-18.75L132.89-18.75Q132.89-17.55 134.19-16.7 135.49-15.85 137.37-15.23 139.24-14.6 141.12-13.78 142.99-12.95 144.29-11.3 145.59-9.65 145.59-7.25L145.59-7.25Q145.59-3.75 143.14-1.73 140.69 0.3 136.39 0.3 132.09 0.3 128.74-1.65L128.74-1.65ZM152.99-5.4L152.99-5.4 152.99-22 149.59-22 149.59-25 153.04-25 153.04-32.15 156.79-32.15 156.79-25 162.89-25 162.89-22 156.74-22 156.74-6.1Q156.74-2.75 160.14-2.75L160.14-2.75Q160.94-2.75 162.59-3.05L162.59-3.05 163.14-0.35Q161.09 0.3 158.91 0.3 156.74 0.3 154.86-1.03 152.99-2.35 152.99-5.4ZM187.04-11.7L187.04-11.7 171.09-11.7Q171.09-6.9 173.36-4.9 175.64-2.9 179.09-2.9L179.09-2.9Q180.84-2.9 181.54-3.08 182.24-3.25 182.86-3.43 183.49-3.6 183.74-3.7L183.74-3.7Q184.99-4.05 185.89-4.35L185.89-4.35 186.49-1.45Q181.49 0.3 178.69 0.3L178.69 0.3Q173.54 0.3 170.44-2.83 167.34-5.95 167.34-12.23 167.34-18.5 170.26-22 173.19-25.5 177.66-25.5 182.14-25.5 184.64-22.6 187.14-19.7 187.14-14.75L187.14-14.75Q187.14-13.4 187.04-11.7ZM171.34-14.55L171.34-14.55 183.54-14.55Q183.54-18.25 182.24-20.25 180.94-22.25 177.71-22.25 174.49-22.25 172.99-20.1 171.49-17.95 171.34-14.55ZM204.93-14.95L204.93-14.95 206.98-14.95Q206.98-19.5 205.83-20.88 204.68-22.25 200.73-22.25 196.78-22.25 194.03-21.2L194.03-21.2 193.33-24.1Q197.53-25.5 202.03-25.5L202.03-25.5Q210.83-25.5 210.83-16.7L210.83-16.7 210.83 0 208.63 0 207.33-2.95Q205.03-1.05 203.36-0.38 201.68 0.3 199.48 0.3L199.48 0.3Q195.98 0.3 194.03-1.78 192.08-3.85 192.08-7.25L192.08-7.25Q192.08-14.95 204.93-14.95ZM207.03-6.55L207.03-11.8 204.78-11.8Q199.68-11.8 197.76-10.8 195.83-9.8 195.83-7.68 195.83-5.55 196.93-4.2 198.03-2.85 199.81-2.85 201.58-2.85 203.21-3.68 204.83-4.5 207.03-6.55L207.03-6.55ZM234.18-23L234.18-35 237.93-35 237.93 0 235.73 0 234.48-2.85Q229.88 0.4 226.48 0.4L226.48 0.4Q217.48 0.4 217.48-12.55L217.48-12.55Q217.48-19.9 220.68-22.8L220.68-22.8Q223.53-25.45 227.13-25.45 230.73-25.45 234.18-23L234.18-23ZM234.18-6.2L234.18-6.2 234.18-19.2Q233.13-20.45 231.41-21.35 229.68-22.25 228.23-22.25L228.23-22.25Q224.33-22.25 222.78-19.95 221.23-17.65 221.23-12.75 221.23-7.85 222.78-5.35 224.33-2.85 226.73-2.85L226.73-2.85Q230.33-2.85 234.18-6.2ZM284.83-18.75L284.83-18.75Q284.83-10.3 279.93-5.15 275.03 0 266.83 0L266.83 0 259.53 0 259.53-35 268.38-35Q275.83-35 280.33-30.45 284.83-25.9 284.83-18.75ZM280.78-19.15L280.78-19.15Q280.78-25.05 277.18-28.4 273.58-31.75 268.58-31.75L268.58-31.75 263.58-31.75 263.58-3.25 267.28-3.25Q272.93-3.25 276.85-7.5 280.78-11.75 280.78-19.15ZM294.92 0L291.17 0 291.17-25 294.92-25 294.92 0ZM291.17-35L294.92-35 294.92-30.55 291.17-30.55 291.17-35ZM316.27-25.05L320.42-25.05 311.97 0 307.67 0 299.27-25.05 303.52-25.05 309.87-4 316.27-25.05ZM328.57 0L324.82 0 324.82-25 328.57-25 328.57 0ZM324.82-35L328.57-35 328.57-30.55 324.82-30.55 324.82-35ZM335.06-1.65L335.97-4.45Q339.22-2.95 342.17-2.95 345.12-2.95 346.64-4.13 348.17-5.3 348.17-7.25 348.17-9.2 346.87-10.28 345.56-11.35 343.69-11.95 341.81-12.55 339.94-13.25 338.06-13.95 336.76-15.35 335.47-16.75 335.47-18.9L335.47-18.9Q335.47-22.05 337.51-23.78 339.56-25.5 343.06-25.5 346.56-25.5 349.56-24.45L349.56-24.45 349.92-24.3 349.26-21.1Q346.26-22.25 343.69-22.25 341.12-22.25 340.17-21.45 339.22-20.65 339.22-18.75L339.22-18.75Q339.22-17.55 340.51-16.7 341.81-15.85 343.69-15.23 345.56-14.6 347.44-13.78 349.31-12.95 350.62-11.3 351.92-9.65 351.92-7.25L351.92-7.25Q351.92-3.75 349.47-1.73 347.01 0.3 342.72 0.3 338.42 0.3 335.06-1.65L335.06-1.65ZM361.76 0L358.01 0 358.01-25 361.76-25 361.76 0ZM358.01-35L361.76-35 361.76-30.55 358.01-30.55 358.01-35ZM385.56-12.33Q385.56-17.15 383.66-19.7 381.76-22.25 378.11-22.25 374.46-22.25 372.94-19.83 371.41-17.4 371.41-12.4L371.41-12.4Q371.41-2.95 378.36-2.95L378.36-2.95Q382.01-2.95 383.79-5.23 385.56-7.5 385.56-12.33ZM386.46-3.1Q383.61 0.3 378.41 0.3 373.21 0.3 370.44-3.08 367.66-6.45 367.66-12.53 367.66-18.6 370.33-22.05 373.01-25.5 378.19-25.5 383.36-25.5 386.33-22 389.31-18.5 389.31-12.5 389.31-6.5 386.46-3.1ZM399.76-19.85L399.76-19.85 399.76 0 396.01 0 396.01-25 398.41-25 399.01-22.55Q400.16-23.45 400.88-23.95 401.61-24.45 403.21-24.98 404.81-25.5 406.61-25.5L406.61-25.5Q410.06-25.5 412.33-23.38 414.61-21.25 414.61-17.35L414.61-17.35 414.61 0 410.86 0 410.86-16.25Q410.86-22.3 405.81-22.3L405.81-22.3Q402.21-22.3 399.76-19.85Z" opacity="1" transform="matrix(1,0,0,1,0,0)" fill="#ffffff" class="undefined-text-1" data-fill-palette-color="secondary" id="text-1"></path></svg></g></svg></g></svg></g></svg></g><g transform="matrix(1,0,0,1,108.62161332184671,0)"><svg viewBox="0 0 180.2543733563065 180.2532290850066" height="180.2532290850066" width="180.2543733563065"><g><svg xmlns="http://www.w3.org/2000/svg" data-name="Layer 1" viewBox="-0.00006782532616347176 0 128.0002702158853 127.99945765842632" x="0" y="0" width="180.2543733563065" height="180.2532290850066" class="icon-icon-0" data-fill-palette-color="accent" id="icon-0"><path d="M100.918 23.645a5.014 5.014 0 0 0-2.467 2.54c-0.038 0.073-0.077 0.146-0.116 0.221a8.072 8.072 0 0 1-0.816-1.63 2 2 0 0 0-3.771 1.332c0.272 0.775 1.786 4.669 4.803 5.245a1.998 1.998 0 0 0 1.958-0.747 1.95 1.95 0 0 0 0.242-0.406c0.143-0.269 0.584-1.033 0.636-1.121a9.802 9.802 0 0 0 0.6-1.026c0.318-0.603 0.385-0.679 0.532-0.742 3.087-1.349 4.513-3.145 4.236-5.337a2.012 2.012 0 0 0-2.231-1.76 1.973 1.973 0 0 0-1.73 2.209C102.786 22.442 102.591 22.914 100.918 23.645Z" fill="#ffffff" data-fill-palette-color="accent"></path><path d="M65.99 78h-4a2 2 0 0 0 0 4h4a2 2 0 0 0 0-4Z" fill="#ffffff" data-fill-palette-color="accent"></path><path d="M30.796 84h-9.6a3.163 3.163 0 0 0-3.199 3.122v8.756A3.163 3.163 0 0 0 21.196 99h9.6a3.163 3.163 0 0 0 3.199-3.122V87.122A3.163 3.163 0 0 0 30.796 84Zm-0.801 11h-7.998V88h7.998Z" fill="#ffffff" data-fill-palette-color="accent"></path><path d="M23.996 80h4a2 2 0 0 0 0-4h-4a2 2 0 0 0 0 4Z" fill="#ffffff" data-fill-palette-color="accent"></path><path d="M27.996 103h-4a2 2 0 0 0 0 4h4a2 2 0 0 0 0-4Z" fill="#ffffff" data-fill-palette-color="accent"></path><path d="M97.185 99h9.599a3.163 3.163 0 0 0 3.199-3.122V87.122A3.163 3.163 0 0 0 106.784 84h-9.599a3.162 3.162 0 0 0-3.2 3.122v8.756A3.162 3.162 0 0 0 97.185 99Zm0.8-11h7.998v7h-7.998Z" fill="#ffffff" data-fill-palette-color="accent"></path><path d="M99.984 80h4a2 2 0 0 0 0-4h-4a2 2 0 0 0 0 4Z" fill="#ffffff" data-fill-palette-color="accent"></path><path d="M103.984 103h-4a2 2 0 0 0 0 4h4a2 2 0 0 0 0-4Z" fill="#ffffff" data-fill-palette-color="accent"></path><path d="M127.241 124.448L115.614 115h4.367a2 2 0 0 0 2-2V72h3.999A0.064 0.064 0 0 1 126 72a2.001 2.001 0 0 0 0.963-3.754l-19.833-13.885c-0.018-0.012-0.039-0.017-0.057-0.028A52.326 52.326 0 0 1 106.001 40.032c0.004-0.038 0.006-0.078 0.007-0.116 0.063-2.218 2.037-4.99 3.079-6.219 5.19-2.203 5.734-6.217 5.273-8.081a2.023 2.023 0 0 0-2.427-1.489 1.977 1.977 0 0 0-1.467 2.396c0.042 0.227 0.305 2.258-3.281 3.628a1.999 1.999 0 0 0-0.754 0.511c-0.438 0.474-4.262 4.732-4.418 9.082A55.366 55.366 0 0 0 102.914 54h-6.761c1.31-5.026 1.795-10.793-0.112-16.25a2 2 0 0 0-1.594-1.318 6.948 6.948 0 0 1-5.634-5.637 7.731 7.731 0 0 0 1.109-3.96 2 2 0 1 0-3.999 0 3.835 3.835 0 0 1-0.594 2.021 2.015 2.015 0 0 0-0.417 0.58A6.527 6.527 0 0 1 79.957 31.514c-3.291 0-5.969-2.099-5.969-4.679 0-2.297 2.204-4.254 5.041-4.609a2.006 2.006 0 0 0 0.476 0.102 4.725 4.725 0 0 1 2.877 1.34 2 2 0 1 0 3.14-2.478 7.947 7.947 0 0 0-4.375-2.622 4.774 4.774 0 0 1-0.353-1.784c0-3.331 3.406-6.04 7.592-6.04a9.134 9.134 0 0 1 2.178 0.271 1.984 1.984 0 0 0 0.623 0.27 3.882 3.882 0 0 1 2.34 1.589 2 2 0 1 0 3.551-1.842A6.768 6.768 0 0 0 94.415 8.332c0-0.014-0.005-0.027-0.005-0.042 0-2.366 2.469-4.29 5.502-4.29 3.035 0 5.505 1.924 5.505 4.29a3.409 3.409 0 0 1-0.421 1.622 2 2 0 0 0 3.033 2.488 5.698 5.698 0 0 1 3.627-1.224c2.71 0 4.912 1.679 4.988 3.762a8.725 8.725 0 0 0-4.157 2.534 1.996 1.996 0 0 0 1.531 3.277 2.015 2.015 0 0 0 1.512-0.681 4.664 4.664 0 0 1 2.908-1.405 2.001 2.001 0 0 0 0.454-0.087c2.852 0.304 5.09 2.258 5.089 4.541 0 2.251-2.149 4.2-4.999 4.534a2.001 2.001 0 0 0-1.746 1.705c-0.332 2.337-2.936 4.168-5.927 4.168a2 2 0 0 0 0 4c4.443 0 8.283-2.561 9.535-6.155 4.153-1.04 7.137-4.393 7.136-8.252 0-3.987-3.081-7.33-7.328-8.3-0.138-4.234-4.12-7.641-8.996-7.641a10.301 10.301 0 0 0-2.291 0.257C108.872 3.263 104.821 0 99.912 0 95.209 0 91.292 2.998 90.541 6.919a13.224 13.224 0 0 0-2.155-0.175c-6.392 0-11.591 4.504-11.591 10.04a8.647 8.647 0 0 0 0.182 1.769c-4.076 1.094-6.987 4.378-6.988 8.282 0 3.945 3.042 7.277 7.189 8.329a9.388 9.388 0 0 0 7.61 7.002 2.029 2.029 0 0 0 0.315 0.025 2 2 0 0 0 0.31-3.976 5.085 5.085 0 0 1-3.888-2.819 10.784 10.784 0 0 0 4.087-1.423 11.097 11.097 0 0 0 6.978 6.124c1.299 4.625 0.653 9.582-0.608 13.903H71.771l-7.276-8.317a2.059 2.059 0 0 0-1.554-0.683 2.002 2.002 0 0 0-1.519 0.759L54.898 54H21.997a1.998 1.998 0 0 0-1.146 0.361l-19.998 14A2 2 0 0 0 2 72H5.999v41a2 2 0 0 0 2 2h4.367L0.739 124.448a1.999 1.999 0 1 0 2.522 3.104L18.706 115h90.568l15.446 12.552a1.999 1.999 0 0 0 2.521-3.104ZM117.982 111H85.987V72h31.995Zm-60.991 0V92h13.998v19Zm14.833-23H56.156a3.221 3.221 0 0 0-3.164 3.272V111h-6.999V72h35.994v39h-6.999V91.272A3.221 3.221 0 0 0 71.824 88Zm33.529-30l14.284 10H84.019l-8.749-10Zm-42.286-7.875L78.705 68H48.918ZM22.627 58H51.732l-7.915 10H8.344ZM9.998 72H41.993v39H9.998Z" fill="#ffffff" data-fill-palette-color="accent"></path><path d="M70.989 119H56.991a2 2 0 0 0 0 4h13.998a2 2 0 0 0 0-4Z" fill="#ffffff" data-fill-palette-color="accent"></path><path d="M48.992 119H34.995a2 2 0 0 0 0 4h13.997a2 2 0 0 0 0-4Z" fill="#ffffff" data-fill-palette-color="accent"></path><path d="M92.985 119H78.988a2 2 0 0 0 0 4h13.997a2 2 0 0 0 0-4Z" fill="#ffffff" data-fill-palette-color="accent"></path><path d="M30.144 25.812a2 2 0 0 0 2-2V18a2 2 0 1 0-3.999 0v5.812A1.999 1.999 0 0 0 30.144 25.812Z" fill="#ffffff" data-fill-palette-color="accent"></path><path d="M12.418 31.778a2 2 0 0 0 2.777-2.879l-4.261-4.11a2 2 0 0 0-2.777 2.879Z" fill="#ffffff" data-fill-palette-color="accent"></path><path d="M46.482 32.337a1.992 1.992 0 0 0 1.388-0.56l4.263-4.109a2 2 0 1 0-2.776-2.88l-4.262 4.109a2 2 0 0 0 1.387 3.44Z" fill="#ffffff" data-fill-palette-color="accent"></path><path d="M19.472 26.294a1.999 1.999 0 1 0 3.674-1.578l-2.303-5.372A2 2 0 0 0 17.167 20.921Z" fill="#ffffff" data-fill-palette-color="accent"></path><path d="M38.238 27.36a1.998 1.998 0 0 0 2.63-1.041l2.319-5.365a2 2 0 0 0-3.67-1.588l-2.321 5.365A2 2 0 0 0 38.238 27.36Z" fill="#ffffff" data-fill-palette-color="accent"></path><path d="M49.582 38.193a1.998 1.998 0 0 0 2.605 1.101l5.556-2.256a2 2 0 1 0-1.504-3.706l-5.555 2.256A2.001 2.001 0 0 0 49.582 38.193Z" fill="#ffffff" data-fill-palette-color="accent"></path><path d="M2.297 37.762l5.617 2.11a2 2 0 0 0 1.406-3.746l-5.618-2.109a2 2 0 0 0-1.405 3.745Z" fill="#ffffff" data-fill-palette-color="accent"></path><path d="M29.995 30A17.018 17.018 0 0 0 12.998 47a2 2 0 1 0 3.999 0 12.998 12.998 0 1 1 25.996 0 2 2 0 1 0 4 0A17.018 17.018 0 0 0 29.995 30Z" fill="#ffffff" data-fill-palette-color="accent"></path></svg></g></svg></g><g></g></svg></g><defs></defs></svg><rect width="265.0649369962764" height="247.2" fill="none" stroke="none" visibility="hidden"></rect></g></svg></g></svg>