<svg xmlns="http://www.w3.org/2000/svg" version="1.1" xmlns:xlink="http://www.w3.org/1999/xlink" xmlns:svgjs="http://svgjs.dev/svgjs" width="1000" height="1000" viewBox="0 0 1000 1000"><rect width="1000" height="1000" fill="#ffffff"></rect><g transform="matrix(0.7,0,0,0.7,150.61676259969136,161.47433274586297)"><svg viewBox="0 0 255 247" data-background-color="#ffffff" preserveAspectRatio="xMidYMid meet" height="968" width="1000" xmlns="http://www.w3.org/2000/svg" xmlns:xlink="http://www.w3.org/1999/xlink"><g id="tight-bounds" transform="matrix(1,0,0,1,-0.22467780417326821,-0.10000027778650633)"><svg viewBox="0 0 255.4493556083465 247.2" height="247.2" width="255.4493556083465"><g><svg viewBox="0 0 397.4975999999999 384.6610083865461" height="247.2" width="255.4493556083465"><g><rect width="397.4975999999999" height="7.024918920268013" x="0" y="206.73901732219858" fill="#000000" opacity="1" stroke-width="0" stroke="transparent" fill-opacity="1" class="rect-o-0" data-fill-palette-color="primary" rx="1%" id="o-0" data-palette-color="#c10000"></rect></g><g><rect width="397.4975999999999" height="7.024918920268013" x="0" y="222.95885629517343" fill="#000000" opacity="1" stroke-width="0" stroke="transparent" fill-opacity="1" class="rect-o-1" data-fill-palette-color="primary" rx="1%" id="o-1" data-palette-color="#c10000"></rect></g><g transform="matrix(1,0,0,1,0.9887999999999693,248.3736153208551)"><svg viewBox="0 0 395.52 136.287393065691" height="136.287393065691" width="395.52"><g id="textblocktransform"><svg viewBox="0 0 395.52 136.287393065691" height="136.287393065691" width="395.52" id="textblock"><g><svg viewBox="0 0 395.52 77.89796550862285" height="77.89796550862285" width="395.52"><g transform="matrix(1,0,0,1,0,0)"><svg width="395.52" viewBox="3.4000000953674316 -38.45000076293945 200.02000427246094 39.400001525878906" height="77.89796550862285" data-palette-color="#c10000"><path d="M5.2 0.3Q4.85 0.3 4.63 0 4.4-0.3 4.4-0.75L4.4-0.75 4.4-1.55 4.4-2.75Q4.4-5.9 4.15-9.85L4.15-9.85Q3.95-14.05 3.95-16.95L3.95-16.95Q3.95-19.65 3.7-27.4L3.7-27.4Q3.4-34.4 3.4-37.85L3.4-37.85Q3.4-38.1 3.63-38.27 3.85-38.45 4.15-38.45L4.15-38.45Q5.05-38.45 5.05-37.7L5.05-37.7Q5.05-28.45 5.2-23.85L5.2-23.85 5.45-14.9Q5.45-12.8 5.75-8.05L5.75-8.05 6.05-1.85Q6.05-1.7 6.2-1.7L6.2-1.7Q6.25-1.65 6.85-1.65L6.85-1.65 9.95-1.65Q10.6-1.65 10.6-0.75L10.6-0.75Q10.6-0.35 10.45-0.08 10.3 0.2 10 0.2L10 0.2 9.65 0.25 9.25 0.25Q8.2 0.3 5.2 0.3L5.2 0.3ZM16.9 0.65Q16 0.65 15.9-0.4L15.9-0.4 15.9-1.05Q15.95-1.3 15.95-1.65L15.95-1.65 15.75-1.85Q16.15-2.9 16.15-3.9L16.15-3.9Q16.15-5.05 16-7.2L16-7.2 15.9-10.5Q15.9-13 16.05-18L16.05-18Q16.25-22.45 16.25-25.55L16.25-25.55 16.15-28.55Q16.05-29.9 16.05-31.55L16.05-31.55Q16.05-32.3 16.4-32.63 16.75-32.95 17.5-32.95L17.5-32.95Q18-32.95 18.3-32.65L18.3-32.65Q18.4-32.6 19.75-32.45L19.75-32.45Q21-32.3 21.9-32L21.9-32Q22.85-31.7 22.85-31.25L22.85-31.25Q22.85-30.75 21.9-30.25L21.9-30.25Q19.05-31.2 17.85-31.2L17.85-31.2 17.6-30.9Q17.65-30.45 17.65-28.75L17.65-28.75Q17.65-26.6 17.55-24.9L17.55-24.9Q17.5-23.15 17.5-21L17.5-21Q17.5-19.6 18.2-19.6L18.2-19.6 19-19.65Q19.4-19.7 19.85-19.7L19.85-19.7Q21.8-19.7 21.8-18.8L21.8-18.8Q21.8-18.25 21.55-17.88 21.3-17.5 20.8-17.5L20.8-17.5Q20.05-17.5 19.65-17.9L19.65-17.9 18.05-18.15 17.8-18.15 17.55-17.9 17.55-17.75Q17.65-16.9 17.65-13.8L17.65-13.8Q17.65-11.85 17.6-10.25L17.6-10.25 17.55-6.7Q17.55-4.75 17.7-2.7L17.7-2.7Q17.75-1.55 18.2-1.18 18.65-0.8 19.85-0.8L19.85-0.8 20.75-0.85Q21.2-0.9 21.75-0.9L21.75-0.9Q23.2-0.9 23.2-0.25L23.2-0.25Q23.2 0.65 21 0.65L21 0.65 16.9 0.65ZM29.8 0.7L28.8-0.05Q29.3-4.6 29.3-12.2L29.3-12.2Q29.3-15.55 29.59-22.3L29.59-22.3Q29.95-28.55 29.95-32.35L29.95-32.35Q29.95-32.8 30.37-33.05 30.8-33.3 31.34-33.3L31.34-33.3Q33.09-33.3 35.2-32.9 37.3-32.5 37.3-31.85L37.3-31.85Q37.3-31 35.55-31L35.55-31Q34.45-31.5 32.74-31.5L32.74-31.5 32.14-31.45Q32-31.4 31.92-31.3 31.84-31.2 31.8-31L31.8-31Q31.7-30.6 31.59-30.45L31.59-30.45Q31.59-28.2 31.39-25.15L31.39-25.15Q31.14-22.2 31.14-19.9L31.14-19.9 31.14-18.15Q31.14-17.95 31.95-18L31.95-18Q34.49-18 34.49-17.2L34.49-17.2Q34.49-16.8 34.12-16.53 33.74-16.25 33.3-16.25L33.3-16.25Q32.99-16.25 32.45-16.4L32.45-16.4Q31.95-16.55 31.59-16.55L31.59-16.55Q30.7-16.55 30.7-14.1L30.7-14.1 30.7-8.45Q30.7-7.25 30.84-4.9L30.84-4.9Q31-2.5 31-1.3L31-1.3Q31 0.7 29.8 0.7L29.8 0.7ZM46.19-0.3L45.64-0.7 45.59-2.55Q45.54-3.35 45.54-4.35L45.54-4.35Q45.54-4.85 45.59-5.2L45.59-5.2 45.64-6.1Q45.64-6.6 45.44-7.3L45.44-7.3Q45.44-10.65 44.94-19.75L44.94-19.75Q44.44-28.55 44.39-31.7L44.39-31.7Q41.29-31.7 40.24-31.85L40.24-31.85Q39.24-32.1 39.24-32.65L39.24-32.65Q39.49-33.2 40.19-33.2L40.19-33.2Q41.69-33.2 44.54-33L44.54-33Q47.14-32.75 48.89-32.75L48.89-32.75 49.94-32.75 50.99-32.8Q51.89-32.8 51.89-32.15L51.89-32.15Q51.89-31.85 51.57-31.68 51.24-31.5 50.79-31.5L50.79-31.5Q49.79-31.5 48.69-31.6L48.69-31.6 46.54-31.7Q46.34-31.7 46.34-31.55L46.34-31.55Q46.29-31.4 46.29-30.6L46.29-30.6Q46.29-25.75 46.89-15.9L46.89-15.9Q47.44-5.7 47.44-1.25L47.44-1.25Q47.44-0.9 47.02-0.6 46.59-0.3 46.19-0.3L46.19-0.3ZM62.39 0.95Q56.54 0.95 56.54-17.45L56.54-17.45 56.54-19.2Q56.54-33.15 60.14-33.15L60.14-33.15Q60.39-33.15 60.84-33L60.84-33Q62.44-32.45 63.99-32.3L63.99-32.3Q64.94-32.1 65.89-30.35L65.89-30.35Q66.94-28.55 67.47-25.6 67.99-22.65 67.99-19.55L67.99-19.55 67.89-19.3Q67.89-17.65 67.94-16.35L67.94-16.35 67.99-13.35Q67.99-10.8 67.79-8.75L67.79-8.75Q67.49-5.65 66.79-3.4L66.79-3.4Q66.34-2.05 65.77-1.15 65.19-0.25 64.34 0.35L64.34 0.35Q63.54 0.95 62.39 0.95L62.39 0.95ZM62.19-0.5Q64.14-0.5 65.09-3.25L65.09-3.25Q66.04-6.05 66.24-8.95L66.24-8.95Q66.44-11.95 66.44-13.75L66.44-13.75Q66.44-15.75 66.14-19.65L66.14-19.65Q65.89-24 65.89-25.55L65.89-25.55 65.69-25.95 65.79-26.2Q65.79-28.4 64.57-30 63.34-31.6 61.59-31.6L61.59-31.6Q59.29-31.6 58.84-29.4L58.84-29.4Q58.74-28.65 58.64-27.25L58.64-27.25Q58.64-23.55 58.34-22.2L58.34-22.2Q58.34-21.45 58.19-19.85L58.19-19.85 58.09-17.5Q58.09-16.4 58.14-15.55L58.14-15.55 58.19-13.55Q58.19-11.2 58.59-8.15L58.59-8.15Q58.89-5.9 59.29-4.35 59.69-2.8 60.44-1.7L60.44-1.7Q61.19-0.5 62.19-0.5L62.19-0.5ZM79.74 0.75Q78.94 0.75 78.01 0.23 77.09-0.3 76.49-1L76.49-1Q75.79-1.9 75.39-6.05 74.99-10.2 74.89-15.55L74.89-15.55Q74.89-16.75 74.84-17.35L74.84-17.35Q74.74-29.9 74.44-32.2L74.44-32.2 74.74-32.9Q75.89-32.75 75.89-30.15L75.89-30.15 76.04-16.9Q76.04-15.5 76.29-11.6L76.29-11.6Q76.59-8.1 76.59-6.3L76.59-6.3Q76.59-0.6 80.34-0.6L80.34-0.6Q82.64-0.6 83.29-11.1L83.29-11.1 83.34-12.1Q83.69-25.85 83.69-32.45L83.69-32.45 83.64-32.9Q83.59-33.1 83.59-33.35L83.59-33.35Q83.59-33.9 84.44-33.9L84.44-33.9Q85.04-33.9 85.19-33.6L85.19-33.6Q85.29-33.1 85.29-31.85L85.29-31.85Q85.29-28.05 84.99-26.75L84.99-26.75 85.04-26.45Q85.04-25.8 84.89-24.45L84.89-24.45 84.79-22.45 84.79-21.95Q84.84-21.75 84.84-21.45L84.84-21.45Q84.74-20.25 84.74-19.15L84.74-19.15Q84.69-18.8 84.69-18.05L84.69-18.05Q84.59-13.3 84.49-9.8L84.49-9.8Q84.34-5.45 83.29-2.45L83.29-2.45Q82.19 0.75 79.74 0.75L79.74 0.75ZM96.64-0.3L96.09-0.7 96.04-2.55Q95.99-3.35 95.99-4.35L95.99-4.35Q95.99-4.85 96.04-5.2L96.04-5.2 96.09-6.1Q96.09-6.6 95.89-7.3L95.89-7.3Q95.89-10.65 95.39-19.75L95.39-19.75Q94.89-28.55 94.84-31.7L94.84-31.7Q91.74-31.7 90.69-31.85L90.69-31.85Q89.69-32.1 89.69-32.65L89.69-32.65Q89.94-33.2 90.64-33.2L90.64-33.2Q92.14-33.2 94.99-33L94.99-33Q97.59-32.75 99.34-32.75L99.34-32.75 100.39-32.75 101.44-32.8Q102.34-32.8 102.34-32.15L102.34-32.15Q102.34-31.85 102.01-31.68 101.69-31.5 101.24-31.5L101.24-31.5Q100.24-31.5 99.14-31.6L99.14-31.6 96.99-31.7Q96.79-31.7 96.79-31.55L96.79-31.55Q96.74-31.4 96.74-30.6L96.74-30.6Q96.74-25.75 97.34-15.9L97.34-15.9Q97.89-5.7 97.89-1.25L97.89-1.25Q97.89-0.9 97.46-0.6 97.04-0.3 96.64-0.3L96.64-0.3ZM117.78 0.3Q117.43 0.3 117.21 0 116.98-0.3 116.98-0.75L116.98-0.75 116.98-1.55 116.98-2.75Q116.98-5.9 116.73-9.85L116.73-9.85Q116.53-14.05 116.53-16.95L116.53-16.95Q116.53-19.65 116.28-27.4L116.28-27.4Q115.98-34.4 115.98-37.85L115.98-37.85Q115.98-38.1 116.21-38.27 116.43-38.45 116.73-38.45L116.73-38.45Q117.63-38.45 117.63-37.7L117.63-37.7Q117.63-28.45 117.78-23.85L117.78-23.85 118.03-14.9Q118.03-12.8 118.33-8.05L118.33-8.05 118.63-1.85Q118.63-1.7 118.78-1.7L118.78-1.7Q118.83-1.65 119.43-1.65L119.43-1.65 122.53-1.65Q123.18-1.65 123.18-0.75L123.18-0.75Q123.18-0.35 123.03-0.08 122.88 0.2 122.58 0.2L122.58 0.2 122.23 0.25 121.83 0.25Q120.78 0.3 117.78 0.3L117.78 0.3ZM129.48 0.65Q128.58 0.65 128.48-0.4L128.48-0.4 128.48-1.05Q128.53-1.3 128.53-1.65L128.53-1.65 128.33-1.85Q128.73-2.9 128.73-3.9L128.73-3.9Q128.73-5.05 128.58-7.2L128.58-7.2 128.48-10.5Q128.48-13 128.63-18L128.63-18Q128.83-22.45 128.83-25.55L128.83-25.55 128.73-28.55Q128.63-29.9 128.63-31.55L128.63-31.55Q128.63-32.3 128.98-32.63 129.33-32.95 130.08-32.95L130.08-32.95Q130.58-32.95 130.88-32.65L130.88-32.65Q130.98-32.6 132.33-32.45L132.33-32.45Q133.58-32.3 134.48-32L134.48-32Q135.43-31.7 135.43-31.25L135.43-31.25Q135.43-30.75 134.48-30.25L134.48-30.25Q131.63-31.2 130.43-31.2L130.43-31.2 130.18-30.9Q130.23-30.45 130.23-28.75L130.23-28.75Q130.23-26.6 130.13-24.9L130.13-24.9Q130.08-23.15 130.08-21L130.08-21Q130.08-19.6 130.78-19.6L130.78-19.6 131.58-19.65Q131.98-19.7 132.43-19.7L132.43-19.7Q134.38-19.7 134.38-18.8L134.38-18.8Q134.38-18.25 134.13-17.88 133.88-17.5 133.38-17.5L133.38-17.5Q132.63-17.5 132.23-17.9L132.23-17.9 130.63-18.15 130.38-18.15 130.13-17.9 130.13-17.75Q130.23-16.9 130.23-13.8L130.23-13.8Q130.23-11.85 130.18-10.25L130.18-10.25 130.13-6.7Q130.13-4.75 130.28-2.7L130.28-2.7Q130.33-1.55 130.78-1.18 131.23-0.8 132.43-0.8L132.43-0.8 133.33-0.85Q133.78-0.9 134.33-0.9L134.33-0.9Q135.78-0.9 135.78-0.25L135.78-0.25Q135.78 0.65 133.58 0.65L133.58 0.65 129.48 0.65ZM147.23 0.35Q144.93 0.35 143.83-0.2 142.73-0.75 142.2-2.33 141.68-3.9 141.28-7.35L141.28-7.35Q140.68-12.4 140.68-15.2L140.68-15.2Q140.68-16.9 140.88-19.1L140.88-19.1 141.18-22.25Q141.43-26 141.75-27.93 142.08-29.85 143.2-31.33 144.33-32.8 146.68-33.05L146.68-33.05Q146.93-33.1 147.48-33.1L147.48-33.1Q149.03-33.1 149.03-32.4L149.03-32.4Q149.03-32.1 148.7-31.88 148.38-31.65 148.03-31.65L148.03-31.65 147.53-31.7 147.08-31.75Q146.23-31.75 145.55-31.2 144.88-30.65 144.43-29.6L144.43-29.6Q143.38-27.1 143.08-24.7L143.08-24.7Q142.68-21.55 142.58-19.2L142.58-19.2 142.53-15.35Q142.53-12.9 142.68-11.7L142.68-11.7Q143.03-11.15 143.15-10.03 143.28-8.9 143.38-6.95L143.38-6.95Q143.48-5.2 143.83-3.98 144.18-2.75 145.08-1.95L145.08-1.95Q146.08-1.1 147.83-1.1L147.83-1.1Q149.28-1.1 149.88-2.7L149.88-2.7Q150.58-4.4 150.68-6.2L150.68-6.2Q150.83-8.45 150.83-10L150.83-10 150.83-12.75Q150.33-13.25 149.08-13.25L149.08-13.25 148.68-13.25Q148.43-13.2 148.13-13.2L148.13-13.2Q146.93-13.2 146.93-13.8L146.93-13.8Q146.93-14.65 148.13-14.65L148.13-14.65Q148.98-14.65 149.53-14.6L149.53-14.6 150.63-14.55Q151.58-14.4 152.13-14.2L152.13-14.2Q152.73-14 152.73-13.65L152.73-13.65Q152.73-13 152.43-11.8L152.43-11.8Q152.18-10.4 152.18-9.9L152.18-9.9Q152.18-7.8 152.28-6.1L152.28-6.1Q152.33-4.35 152.33-2.25L152.33-2.25Q149.78 0.35 147.23 0.35L147.23 0.35ZM160.97 0Q159.82 0 159.62-0.5L159.62-0.5Q159.37-0.5 159.22-0.45L159.22-0.45 158.82-0.45Q157.72-0.45 157.42-0.95L157.42-0.95Q157.42-1.3 157.82-1.55L157.82-1.55 158.07-1.8 159.52-1.8 159.72-2 159.82-2.45 159.87-3.05Q159.87-6.1 159.72-8.5L159.72-8.5 159.62-10.35 159.52-14Q159.52-15.95 159.67-19.85L159.67-19.85 159.77-25.65Q159.77-29.45 159.52-31.45L159.52-31.45Q159.07-31.6 158.02-31.6L158.02-31.6 157.47-31.55Q157.17-31.5 156.82-31.5L156.82-31.5Q155.87-31.5 155.87-32.35L155.87-32.35Q155.87-32.55 156.32-32.75 156.77-32.95 157.07-32.95L157.07-32.95Q158.97-32.95 160.87-32.75L160.87-32.75Q162.02-32.7 163.17-32.3L163.17-32.3Q164.07-32 164.07-31.45L164.07-31.45Q164.07-31.35 163.92-31.05L163.92-31.05 162.77-30.95Q162.42-31.25 161.32-31.25L161.32-31.25 161.07-31.1Q161.22-30.65 161.22-28.45L161.22-28.45Q161.22-25.15 161.17-22.5L161.17-22.5 161.07-16.55Q161.07-14.3 161.27-11.1L161.27-11.1Q161.42-7.45 161.42-5.6L161.42-5.6 161.42-4.95Q161.37-4.6 161.37-4.05L161.37-4.05Q161.37-2.9 161.52-2.65L161.52-2.65 161.47-2.55Q161.47-2.05 162.57-2.05L162.57-2.05Q163.02-2.05 163.32-2.1L163.32-2.1 164.07-2.1Q165.52-2.1 165.52-1.4L165.52-1.4Q165.52-0.95 165.22-0.68 164.92-0.4 164.42-0.4L164.42-0.4Q163.97-0.4 163.62-0.5L163.62-0.5Q163.22-0.55 162.77-0.55L162.77-0.55Q162.47-0.55 161.87-0.3L161.87-0.3Q161.27 0 160.97 0L160.97 0ZM175.32 0.95Q169.47 0.95 169.47-17.45L169.47-17.45 169.47-19.2Q169.47-33.15 173.07-33.15L173.07-33.15Q173.32-33.15 173.77-33L173.77-33Q175.37-32.45 176.92-32.3L176.92-32.3Q177.87-32.1 178.82-30.35L178.82-30.35Q179.87-28.55 180.4-25.6 180.92-22.65 180.92-19.55L180.92-19.55 180.82-19.3Q180.82-17.65 180.87-16.35L180.87-16.35 180.92-13.35Q180.92-10.8 180.72-8.75L180.72-8.75Q180.42-5.65 179.72-3.4L179.72-3.4Q179.27-2.05 178.7-1.15 178.12-0.25 177.27 0.35L177.27 0.35Q176.47 0.95 175.32 0.95L175.32 0.95ZM175.12-0.5Q177.07-0.5 178.02-3.25L178.02-3.25Q178.97-6.05 179.17-8.95L179.17-8.95Q179.37-11.95 179.37-13.75L179.37-13.75Q179.37-15.75 179.07-19.65L179.07-19.65Q178.82-24 178.82-25.55L178.82-25.55 178.62-25.95 178.72-26.2Q178.72-28.4 177.5-30 176.27-31.6 174.52-31.6L174.52-31.6Q172.22-31.6 171.77-29.4L171.77-29.4Q171.67-28.65 171.57-27.25L171.57-27.25Q171.57-23.55 171.27-22.2L171.27-22.2Q171.27-21.45 171.12-19.85L171.12-19.85 171.02-17.5Q171.02-16.4 171.07-15.55L171.07-15.55 171.12-13.55Q171.12-11.2 171.52-8.15L171.52-8.15Q171.82-5.9 172.22-4.35 172.62-2.8 173.37-1.7L173.37-1.7Q174.12-0.5 175.12-0.5L175.12-0.5ZM200.17 0.2Q199.77 0.2 199.59-0.1 199.42-0.4 199.27-1L199.27-1Q199.22-1.4 199.07-1.7L199.07-1.7 199.12-1.85Q198.72-4.2 197.42-7.6L197.42-7.6 196.52-10.2Q196.42-10.3 195.57-12.75L195.57-12.75 195.17-13.95Q190.67-27.85 189.52-29L189.52-29Q189.12-27.65 189.12-25.5L189.12-25.5Q189.12-24.35 189.17-23.5L189.17-23.5 189.22-21.55 189.17-20.35Q189.12-19.8 189.12-19.15L189.12-19.15Q189.12-18.05 189.22-17.25L189.22-17.25Q189.32-15.65 189.32-15.65L189.32-15.65 189.17-15.65Q189.17-7.3 189.52-6.45L189.52-6.45 189.52-1.95Q189.72-1.55 189.72-0.9L189.72-0.9Q189.72-0.5 189.44-0.2 189.17 0.1 188.77 0.1L188.77 0.1Q187.72 0.1 187.72-2.6L187.72-2.6 187.82-4.2Q187.92-4.95 187.92-5.85L187.92-5.85Q187.92-8.25 187.77-13.05L187.77-13.05Q187.62-17.85 187.62-20.25L187.62-20.25Q187.62-21.7 187.77-24.7L187.77-24.7Q187.92-27.65 187.92-29.1L187.92-29.1 187.92-29.75Q187.92-32.2 188.82-32.95L188.82-32.95 188.97-32.8 189.47-32.9Q189.67-32.85 189.92-32.6L189.92-32.6Q190.12-32.4 190.12-32.15L190.12-32.15 190.22-31.85Q190.22-31.75 190.24-31.68 190.27-31.6 190.27-31.6L190.27-31.6Q191.07-28.05 193.87-21.65L193.87-21.65Q196.72-14.9 197.42-12.7L197.42-12.7Q197.92-10.95 198.22-9.6L198.22-9.6Q199.17-5.35 200.47-3.05L200.47-3.05 200.57-3.2Q201.72-14.3 201.72-30.45L201.72-30.45 201.67-31.05Q201.62-31.3 201.62-31.7L201.62-31.7Q201.62-32.75 202.32-32.75L202.32-32.75Q202.77-32.75 203.09-32.3 203.42-31.85 203.42-31.3L203.42-31.3 203.42-27.95 203.17-27.55Q203.17-22.8 202.62-11.95 202.07-1.1 201.57-0.15L201.57-0.15 200.72 0.05 200.72 0.1 200.67 0.05 200.17 0.2Z" opacity="1" transform="matrix(1,0,0,1,0,0)" fill="#000000" class="undefined-text-0" data-fill-palette-color="primary" id="text-0"></path></svg></g></svg></g><g transform="matrix(1,0,0,1,0,96.2878056140365)"><svg viewBox="0 0 395.52 39.999587451654484" height="39.999587451654484" width="395.52"><g transform="matrix(1,0,0,1,0,0)"><svg width="395.52" viewBox="0.6500000357627869 -35 349.010009765625 35.29999923706055" height="39.999587451654484" data-palette-color="#003c3b"><path d="M32.95-34.95L36.9-34.95 28.6 0 24.25 0 19.15-20.3 12.9 0 8.8 0 0.65-34.95 4.95-34.95 11.05-4.25 17.7-25.5 20.5-25.5 26.65-4.25 32.95-34.95ZM52.9-14.95L52.9-14.95 54.95-14.95Q54.95-19.5 53.8-20.88 52.65-22.25 48.7-22.25 44.75-22.25 42-21.2L42-21.2 41.3-24.1Q45.5-25.5 50-25.5L50-25.5Q58.8-25.5 58.8-16.7L58.8-16.7 58.8 0 56.6 0 55.3-2.95Q53-1.05 51.32-0.38 49.65 0.3 47.45 0.3L47.45 0.3Q43.95 0.3 42-1.78 40.05-3.85 40.05-7.25L40.05-7.25Q40.05-14.95 52.9-14.95ZM55-6.55L55-11.8 52.75-11.8Q47.65-11.8 45.72-10.8 43.8-9.8 43.8-7.68 43.8-5.55 44.9-4.2 46-2.85 47.77-2.85 49.55-2.85 51.17-3.68 52.8-4.5 55-6.55L55-6.55ZM71.65-19.1L71.65-19.1 71.65 0 67.9 0 67.9-25 70.3-25 70.9-22.05Q73.3-23.95 74.9-24.73 76.5-25.5 78.55-25.5L78.55-25.5Q79.55-25.5 80.05-25.4L80.05-25.4 80.75-25.2 80.15-21.75Q79.25-22.05 77.7-22.05L77.7-22.05Q74.7-22.05 71.65-19.1ZM87.04-5.4L87.04-5.4 87.04-22 83.64-22 83.64-25 87.09-25 87.09-32.15 90.84-32.15 90.84-25 96.94-25 96.94-22 90.79-22 90.79-6.1Q90.79-2.75 94.19-2.75L94.19-2.75Q94.99-2.75 96.64-3.05L96.64-3.05 97.19-0.35Q95.14 0.3 92.97 0.3 90.79 0.3 88.92-1.03 87.04-2.35 87.04-5.4ZM106.79 0L103.04 0 103.04-25 106.79-25 106.79 0ZM103.04-35L106.79-35 106.79-30.55 103.04-30.55 103.04-35ZM125.69-25.55L125.69-25.55Q130.49-25.55 132.54-22.15L132.54-22.15Q136.79-25.55 140.39-25.55 143.99-25.55 146.26-23.53 148.54-21.5 148.54-17.65L148.54-17.65 148.54 0 144.89 0 144.89-16.1Q144.89-19.15 143.51-20.73 142.14-22.3 139.84-22.3L139.84-22.3Q136.69-22.3 133.49-19.8L133.49-19.8Q133.74-18.7 133.74-17.65L133.74-17.65 133.74 0 130.09 0 130.09-16.1Q130.09-19.15 128.71-20.73 127.34-22.3 125.04-22.3L125.04-22.3Q123.54-22.3 122.29-21.9 121.04-21.5 120.44-21.1 119.84-20.7 118.89-19.9L118.89-19.9 118.89 0 115.14 0 115.14-25 117.54-25 118.19-22.45Q119.44-23.5 120.11-23.98 120.79-24.45 122.34-25 123.89-25.55 125.69-25.55ZM174.99-11.7L174.99-11.7 159.04-11.7Q159.04-6.9 161.31-4.9 163.59-2.9 167.04-2.9L167.04-2.9Q168.79-2.9 169.49-3.08 170.19-3.25 170.81-3.43 171.44-3.6 171.69-3.7L171.69-3.7Q172.94-4.05 173.84-4.35L173.84-4.35 174.44-1.45Q169.44 0.3 166.64 0.3L166.64 0.3Q161.49 0.3 158.39-2.83 155.29-5.95 155.29-12.23 155.29-18.5 158.21-22 161.14-25.5 165.61-25.5 170.09-25.5 172.59-22.6 175.09-19.7 175.09-14.75L175.09-14.75Q175.09-13.4 174.99-11.7ZM159.29-14.55L159.29-14.55 171.49-14.55Q171.49-18.25 170.19-20.25 168.89-22.25 165.66-22.25 162.44-22.25 160.94-20.1 159.44-17.95 159.29-14.55ZM219.88-18.75L219.88-18.75Q219.88-10.3 214.98-5.15 210.08 0 201.88 0L201.88 0 194.58 0 194.58-35 203.43-35Q210.88-35 215.38-30.45 219.88-25.9 219.88-18.75ZM215.83-19.15L215.83-19.15Q215.83-25.05 212.23-28.4 208.63-31.75 203.63-31.75L203.63-31.75 198.63-31.75 198.63-3.25 202.33-3.25Q207.98-3.25 211.91-7.5 215.83-11.75 215.83-19.15ZM229.98 0L226.23 0 226.23-25 229.98-25 229.98 0ZM226.23-35L229.98-35 229.98-30.55 226.23-30.55 226.23-35ZM251.33-25.05L255.48-25.05 247.03 0 242.73 0 234.33-25.05 238.58-25.05 244.93-4 251.33-25.05ZM263.62 0L259.87 0 259.87-25 263.62-25 263.62 0ZM259.87-35L263.62-35 263.62-30.55 259.87-30.55 259.87-35ZM270.12-1.65L271.02-4.45Q274.27-2.95 277.22-2.95 280.17-2.95 281.69-4.13 283.22-5.3 283.22-7.25 283.22-9.2 281.92-10.28 280.62-11.35 278.75-11.95 276.87-12.55 275-13.25 273.12-13.95 271.82-15.35 270.52-16.75 270.52-18.9L270.52-18.9Q270.52-22.05 272.57-23.78 274.62-25.5 278.12-25.5 281.62-25.5 284.62-24.45L284.62-24.45 284.97-24.3 284.32-21.1Q281.32-22.25 278.75-22.25 276.17-22.25 275.22-21.45 274.27-20.65 274.27-18.75L274.27-18.75Q274.27-17.55 275.57-16.7 276.87-15.85 278.75-15.23 280.62-14.6 282.5-13.78 284.37-12.95 285.67-11.3 286.97-9.65 286.97-7.25L286.97-7.25Q286.97-3.75 284.52-1.73 282.07 0.3 277.77 0.3 273.47 0.3 270.12-1.65L270.12-1.65ZM296.82 0L293.07 0 293.07-25 296.82-25 296.82 0ZM293.07-35L296.82-35 296.82-30.55 293.07-30.55 293.07-35ZM320.62-12.33Q320.62-17.15 318.72-19.7 316.81-22.25 313.17-22.25 309.51-22.25 307.99-19.83 306.47-17.4 306.47-12.4L306.47-12.4Q306.47-2.95 313.42-2.95L313.42-2.95Q317.06-2.95 318.84-5.23 320.62-7.5 320.62-12.33ZM321.51-3.1Q318.67 0.3 313.47 0.3 308.26 0.3 305.49-3.08 302.72-6.45 302.72-12.53 302.72-18.6 305.39-22.05 308.06-25.5 313.24-25.5 318.42-25.5 321.39-22 324.37-18.5 324.37-12.5 324.37-6.5 321.51-3.1ZM334.81-19.85L334.81-19.85 334.81 0 331.06 0 331.06-25 333.46-25 334.06-22.55Q335.21-23.45 335.94-23.95 336.66-24.45 338.26-24.98 339.86-25.5 341.66-25.5L341.66-25.5Q345.11-25.5 347.39-23.38 349.66-21.25 349.66-17.35L349.66-17.35 349.66 0 345.91 0 345.91-16.25Q345.91-22.3 340.86-22.3L340.86-22.3Q337.26-22.3 334.81-19.85Z" opacity="1" transform="matrix(1,0,0,1,0,0)" fill="#000000" class="undefined-text-1" data-fill-palette-color="secondary" id="text-1"></path></svg></g></svg></g></svg></g></svg></g><g transform="matrix(1,0,0,1,128.35597184897588,0)"><svg viewBox="0 0 140.78565630204815 188.34917721678494" height="188.34917721678494" width="140.78565630204815"><g><svg xmlns="http://www.w3.org/2000/svg" xmlns:xlink="http://www.w3.org/1999/xlink" version="1.1" x="0" y="0" viewBox="16.30452537536621 5 67.27243041992188 89.99998474121094" enable-background="new 0 0 100 100" xml:space="preserve" height="188.34917721678494" width="140.78565630204815" class="icon-icon-0" data-fill-palette-color="accent" id="icon-0"><path d="M82.1 41.1c-2.4-2.6-4.1-3.8-5.5-3.6-1.1 0.1-2.4 0.3-3.7 0.7-2-2-4.1-3.5-6-4.5l3.4-9.1c1.6-1.7 4-5 6.5-11.2l1.6-3.4c0.2-0.3 0.1-0.7-0.2-0.9C77.9 9 72.3 5 59.9 5c-2 0-4 0.1-6.1 0.3C44.8 6.2 32.4 11 24.2 21.8 17 31.4 14.7 43.6 17.4 58c0 0.3 0.2 0.5 0.5 0.6 0.1 0 0.2 0.1 0.3 0.1 0.2 0 0.3 0 0.4-0.1l8.4-6.1c-0.6 4-1.4 11.5-0.6 19.8 0.7 7.4-0.9 12.2-0.9 12.3C25 86 25 87 25.5 87.6c0.3 0.4 0.7 0.6 1.2 0.6 1.3 0 3-1.4 3.8-2.3 0.6-0.6 1.2-1.4 1.8-2.5 3.3 1.4 6.7 1.5 9.3 1.6 0.5 0 1 0 1.4 0.1 2.3 3.5 6.4 8 12.1 9.7 0.4 0.1 0.7 0.2 1.1 0.2 1.1 0 2.1-0.5 2.8-1.3 0.8-0.9 1.2-2.1 1.1-3.3L59.5 84c3.6-0.9 7.1-2.1 7.1-2.1 0.3-0.1 0.5-0.3 0.5-0.6l0.2-1.9c0.1-0.7-0.2-1.7-0.6-3.5-0.8-3.4-2.1-8.5 0.2-9.8 0.8-0.5 1.5-0.6 2-0.3 1 0.5 1.5 2.1 1.7 2.7v7.1c0 2.2 0.6 4.3 1.9 6 1.6 2.4 4 5.7 5.7 7.4 0.3 0.4 0.8 0.5 1.3 0.5 0.2 0 0.5 0 0.7-0.1 0.7-0.3 1.1-0.9 1.1-1.7V72.4c0-1.3-0.4-2.6-1.2-3.6l0-0.1c-1-1.4-2.3-3.2-0.4-7.2 0.4 0 0.8 0.1 1.1 0.1 0.3 0 1.2 0 1.5-0.7 0.6-1.2-0.5-2.3-1.1-2.8 0-0.2 0-0.5 0-0.7 0-0.1 0-0.2 0-0.3 0.2 0 0.3 0 0.5 0 0.7 0.1 1.4-0.5 1.4-1.2l0.4-10.2C83.8 44 83.2 42.4 82.1 41.1zM60 31.5c-1.8-0.2-3.6-0.3-5.3-0.3C40 31.2 32.7 39.6 29.5 45c5.7-18.1 19.8-21 28-21 4.6 0 8 0.8 8.6 1 0.1 0 0.1 0 0.2 0h2.2l-3 8.1C62.5 31.8 60.2 31.6 60 31.5zM26.5 50.8l-7.9 5.7c-2.3-13.5 0-24.9 6.8-33.9 7.8-10.4 19.9-15 28.5-15.9 2.1-0.2 4.1-0.3 6-0.3 9.8 0 15.2 2.6 16.8 3.5l-1.3 2.8c-2.4 5.9-4.6 9-6.1 10.6h-2.8c-0.9-0.2-4.3-1-8.9-1-9.3 0-25.8 3.5-30.7 26.8L26.5 50.8zM41.7 83.5c-2.4-0.1-5.6-0.2-8.6-1.5 1.8-3.5 3.2-8.3 2.9-11-0.1-1-0.4-2.1-0.7-3.2-0.9-3.6-1.3-5.8 1.1-6.6 1.4-0.5 2.6 0 3.6 1.6 0.4 0.7 0.8 1.5 0.9 2.4 0 0.1 0 0.4 0.1 0.8 0 0.4 0.1 0.9 0.1 1-0.1 4.7-0.1 12.7 0 14.2 0.1 0.4 0.4 1.3 1 2.4C41.9 83.6 41.8 83.6 41.7 83.5zM57.9 92.7c-0.6 0.7-1.5 1-2.4 0.7-5.4-1.7-9.3-6.1-11.4-9.3 0-0.1-0.1-0.2-0.2-0.2-0.9-1.4-1.3-2.5-1.4-2.9-0.1-1-0.1-6.3 0-14 0-0.1 0-0.2-0.1-1l6.4 0.5c0.2 1.9 0.5 4.6 2.5 6.4 1.4 1.3 2.5 2.2 3.5 2.9 1.6 1.2 2.7 3.2 2.9 5.3l0.9 9.5C58.7 91.3 58.4 92.1 57.9 92.7zM79 69.5L79 69.5c0.6 0.9 0.9 1.8 0.9 2.8v15.4c0 0.2-0.1 0.3-0.2 0.3-0.1 0-0.2 0.1-0.3-0.1-1.6-1.7-3.9-4.8-5.5-7.2-1.1-1.5-1.6-3.3-1.6-5.2v-7.1c0 0 0-0.1 0-0.1 0-0.1-0.6-3-2.5-3.9-1-0.5-2.2-0.3-3.4 0.4-3.2 1.9-1.8 7.6-0.9 11.4 0.3 1.2 0.6 2.5 0.6 2.9l-0.2 1.5c-1 0.3-3.6 1.2-6.3 1.8l-0.1-1.6c-0.2-2.5-1.5-4.9-3.5-6.4-0.9-0.7-2-1.6-3.4-2.9-1.6-1.4-1.9-3.4-2-5.2l0.4 0c3.4 0.2 5.5 0.3 6.3 0.3 1.1 0 2.4-0.9 4.3-2.2 2.4-1.7 5.5-3.9 8.7-4 2.3-0.1 4.6 0.2 6.3 0.4 0.5 0.1 1 0.1 1.4 0.2l0.1 0c0.1 0 0.2 0 0.4 0.1C76.3 65.8 77.9 68.1 79 69.5zM79.9 58.4c0 0.2 0.1 0.4 0.3 0.5 0.4 0.3 0.8 0.8 0.9 1.1-0.1 0-0.1 0-0.2 0-0.6 0-1.6-0.2-2.8-0.3l-0.1 0c-0.5-0.1-0.9-0.1-1.4-0.2-1.8-0.2-4.2-0.5-6.6-0.4-3.7 0.2-6.9 2.5-9.5 4.3-1.4 1-2.7 2-3.4 2-0.8 0-2.9-0.1-6.2-0.2l-8.6-0.7c-0.2-0.9-0.6-1.7-1-2.4-1.3-2.1-3.2-2.9-5.3-2.2C32 61.1 33 65 33.8 68.2c0.3 1.1 0.5 2.1 0.6 3 0.3 2.7-1.4 7.6-3.1 10.9 0 0 0 0 0 0.1 0 0 0 0 0 0-0.6 1.2-1.3 2.2-1.8 2.7-1.3 1.2-2.3 1.8-2.8 1.8 0-0.1-0.2-0.6 0.2-1.8 0.1-0.2 1.7-5.1 0.9-12.9-1.1-11.5 1-21.6 1.1-22.2 0.2-0.7 5.7-17.1 25.9-17.1 1.6 0 3.4 0.1 5.1 0.3 0.1 0 6.2 0.7 11.3 5.6-9.9 2.8-23.4 10-28.4 12.8 0.1-0.7 0.2-2.1-0.5-3.2-0.6-0.9-1.7-1.4-3.2-1.5-0.1 0-0.2 0-0.3 0-2.1 0-3.3 1.5-3.8 2.4-1.3 2.2-1.3 5.2-0.1 7.3 1.2 2.1 3.5 3.3 6.7 3.3 0.2 0 0.4 0 0.5 0 4.2-0.2 7.9-0.7 11.9-1.4 5.4-0.8 10.9-1.7 18.4-1.7 2.5 0 5 0.1 7.6 0.3 0 0.1 0 0.3 0 0.4C79.9 58 79.9 58.3 79.9 58.4zM81.8 55.6c-3.3-0.3-6.5-0.4-9.6-0.4-7.6 0-13.2 0.9-18.6 1.7-3.9 0.6-7.6 1.2-11.7 1.4-0.2 0-0.3 0-0.5 0-1.8 0-4.2-0.4-5.4-2.5-1-1.7-0.9-4.1 0.1-5.8 0.4-0.6 1.2-1.7 2.5-1.7 0.1 0 0.1 0 0.2 0 0.7 0.1 1.7 0.3 2.1 0.9 0.5 0.7 0.4 1.9 0.2 2.4 0 0.2-0.2 0.6-0.3 0.9 0 0-0.1 0-0.1 0.1-0.1 0.1-0.1 0.1-0.2 0.2 0 0 0 0 0 0-1.3 1.3-1.9 0.7-2.3 0.4 0 0-0.1-0.1-0.1-0.1-0.1-0.1-0.1-0.3-0.1-0.5 0.1 0.1 0.2 0.1 0.3 0.2 0.4 0.1 0.8-0.1 0.9-0.5 0-0.1 0.2-0.8-0.2-1.3-0.2-0.3-0.6-0.4-1.1-0.4-0.5 0-1 0.5-1.2 1.2-0.3 0.9-0.2 2 0.5 2.6l0 0c1.3 1.1 2.8 1 4.2-0.4 1.2-0.7 19.4-10.9 31-14 0.1 0 0.2 0 0.3-0.1 1.4-0.3 2.6-0.6 3.8-0.7 0 0 0 0 0.1 0 0.4 0 1.6 0.3 4.2 3.2 0.9 0.9 1.3 2.2 1.2 3.5L81.8 55.6z" fill="#000000" data-fill-palette-color="accent"></path></svg></g></svg></g><g></g></svg></g><defs></defs></svg><rect width="255.4493556083465" height="247.2" fill="none" stroke="none" visibility="hidden"></rect></g></svg></g></svg>